<?xml version="1.0" encoding="utf-8"?>
<!-- Generator: Adobe Illustrator 16.0.0, SVG Export Plug-In . SVG Version: 6.00 Build 0)  -->
<!DOCTYPE svg PUBLIC "-//W3C//DTD SVG 1.1//EN" "http://www.w3.org/Graphics/SVG/1.1/DTD/svg11.dtd">
<svg version="1.1" id="Layer_1" xmlns="http://www.w3.org/2000/svg" xmlns:xlink="http://www.w3.org/1999/xlink" x="0px" y="0px"
	 width="793.7px" height="793.7px" viewBox="0 0 793.7 793.7" enable-background="new 0 0 793.7 793.7" xml:space="preserve">
<path fill="#FFFFFF" d="M736.75,395.789c0,187.64-152.11,339.749-339.75,339.749l0,0c-187.638,0-339.748-152.109-339.748-339.749
	l0,0c0-187.638,152.11-339.748,339.748-339.748l0,0C584.64,56.041,736.75,208.151,736.75,395.789L736.75,395.789z"/>
<path fill="#010101" d="M736.75,397.279c0,187.639-152.11,339.75-339.75,339.75l0,0c-187.638,0-339.748-152.11-339.748-339.75l0,0
	C57.252,209.642,209.362,57.53,397,57.53l0,0C584.64,57.53,736.75,209.642,736.75,397.279L736.75,397.279z"/>
<path fill="#5B6E85" d="M570.148,589.373c0,15.438-12.409,27.848-27.847,27.848H270.77c-15.439,0-27.85-12.409-27.85-27.848V220.977
	c0-15.438,12.409-27.849,27.85-27.849h271.532c15.438,0,27.847,12.41,27.847,27.849V589.373z"/>
<path fill="#FFFFFF" d="M534.43,549.11c0,12.108-9.688,21.799-21.796,21.799h-212.5c-12.108,0-21.795-9.689-21.795-21.799V242.469
	c0-12.108,9.687-21.795,21.795-21.795h212.5c12.107,0,21.796,9.687,21.796,21.795V549.11z"/>
<path fill="#65C2CA" d="M494.17,233.994c0-27.852-13.018-50.25-28.758-50.25H347.354c-15.741,0-28.456,22.399-28.757,50.25H494.17z"
	/>
<path fill="#CAE4ED" d="M486.787,421.251h29.681v70.517h-29.681V421.251z"/>
<path fill="#CAE4ED" d="M439.218,350.739H468.9v141.027h-29.683V350.739L439.218,350.739z"/>
<path fill="#CAE4ED" d="M392.371,383.029h29.687v106.798h-29.687V383.029z"/>
<path fill="#CAE4ED" d="M347.09,394.693h29.679v95.52H347.09V394.693z"/>
<path fill="#CAE4ED" d="M299.519,317.44h29.683v172.772h-29.683V317.44z"/>
<path fill="#CAE4ED" d="M286.198,490.213h230.27v6.089h-230.27V490.213z"/>
<g id="magnifier">
	<path fill="#D2D0D7" d="M349.511,389.482c-1.972-0.159-3.979-0.229-5.947-0.229c-37.452,0-69.179,27.601-72.218,62.846
		c-1.257,14.65,2.513,28.609,9.942,40.376l-31.276,26.062l8.518,9.379l-11.39-12.547l-15.422,12.438l-48.521,38.873
		c-5.403,4.353-5.365,12.756,0.114,18.825c5.46,6.066,14.277,7.481,19.681,3.166l64.245-51.15l-4.333-4.778l30.715-25.638
		c11.596,10.457,26.923,17.376,44.13,18.702c1.988,0.142,3.995,0.229,5.966,0.229l0,0c37.433,0,69.159-27.601,72.219-62.827
		C419.159,425.63,389.362,392.545,349.511,389.482z M286.899,500.152c0.019,0.037,0.036,0.055,0.075,0.071
		C286.953,500.206,286.918,500.189,286.899,500.152z M290.107,503.709c0.02,0.02,0.037,0.036,0.055,0.054
		C290.145,503.745,290.125,503.729,290.107,503.709z M405.2,462.38c-2.608,30.008-29.608,53.505-61.487,53.505
		c-1.688,0-3.396-0.071-5.084-0.195c-33.925-2.601-59.291-30.768-56.552-62.777c2.589-30.006,29.608-53.521,61.505-53.521
		c1.688,0,3.396,0.071,5.086,0.195C382.59,402.205,407.957,430.373,405.2,462.38z"/>
	<g>
		<g>
			<path fill="#3E464B" d="M332.849,526.037L332.849,526.037c-1.988,0-3.997-0.07-5.967-0.229
				c-39.832-3.061-69.627-36.13-66.384-73.709c3.041-35.246,34.77-62.846,72.22-62.846c1.97,0,3.979,0.07,5.948,0.229
				c39.853,3.062,69.648,36.13,66.4,73.729C402.007,498.438,370.28,526.037,332.849,526.037z M332.718,399.409
				c-31.897,0-58.897,23.515-61.505,53.522c-2.758,32.007,22.608,60.157,56.551,62.773c1.688,0.125,3.396,0.195,5.085,0.195
				c31.878,0,58.896-23.497,61.486-53.505c2.758-32.006-22.609-60.174-56.552-62.793
				C336.095,399.462,334.388,399.409,332.718,399.409z"/>
		</g>
		<path fill="#BDB8BE" d="M256.39,537.522l-20.095-22.135l-15.423,12.439l-48.54,38.854c-5.385,4.353-5.364,12.756,0.114,18.825
			c5.46,6.066,14.277,7.481,19.682,3.166L256.39,537.522z"/>
		<path fill="#FFD55C" d="M252.037,532.727l30.716-25.638c-4.786-4.315-8.934-9.234-12.328-14.613l-31.278,26.062L252.037,532.727z"
			/>
	</g>
</g>
</svg>
