<?xml version="1.0" encoding="utf-8"?>
<!-- Generator: Adobe Illustrator 16.0.0, SVG Export Plug-In . SVG Version: 6.00 Build 0)  -->
<!DOCTYPE svg PUBLIC "-//W3C//DTD SVG 1.1//EN" "http://www.w3.org/Graphics/SVG/1.1/DTD/svg11.dtd">
<svg version="1.1" id="Layer_1" xmlns="http://www.w3.org/2000/svg" xmlns:xlink="http://www.w3.org/1999/xlink" x="0px" y="0px"
	 width="793.7px" height="793.7px" viewBox="0 0 793.7 793.7" enable-background="new 0 0 793.7 793.7" xml:space="preserve">
<path fill="#010101" d="M736.749,397.279c0,187.639-152.11,339.75-339.75,339.75l0,0c-187.638,0-339.748-152.11-339.748-339.75l0,0
	c0-187.638,152.11-339.749,339.748-339.749l0,0C584.639,57.53,736.749,209.642,736.749,397.279L736.749,397.279z"/>
<g transform="matrix(1, 0, 0, 1, -83.34607633289082, 0.4931720493070415)">
	<path fill="#060907" d="M317.351,249.895h106.004c11.844,0,21.449-9.605,21.449-21.451c0-11.853-10.712-21.402-22.542-21.402
		c-0.947-9.958-5.573-18.825-12.563-25.198c-6.958-6.397-16.22-10.287-26.419-10.287c-12.625,0-23.856,5.991-31.02,15.303
		c-1.527-0.236-3.098-0.395-4.687-0.395c-17.534,0-31.734,14.177-31.734,31.7c0,0.605,0.047,1.158,0.085,1.752
		c-7.642,0.695-13.629,7.064-13.629,14.9C302.291,243.143,309.035,249.895,317.351,249.895z"/>
	<path fill="#060907" d="M602.556,599.504c0.053-0.733,0.112-1.423,0.112-2.166c0-21.553-17.482-38.996-39.046-38.996
		c-1.959,0-3.882,0.203-5.769,0.495c-8.811-11.463-22.62-18.829-38.162-18.829c-12.549,0-23.937,4.793-32.496,12.655
		c-8.592,7.843-14.286,18.747-15.446,31.005c-14.562,0-27.74,11.741-27.74,26.33c0,14.559,11.816,26.382,26.405,26.382h130.391
		c10.226,0,18.523-8.313,18.523-18.553C619.329,608.189,611.962,600.358,602.556,599.504z"/>
	<path fill="#060907" d="M276.783,434.728c-0.131-0.098-0.284-0.204-0.433-0.278l-0.01,0.044
		C276.495,434.573,276.633,434.656,276.783,434.728z"/>
	<path fill="#060907" d="M719.927,375.356c-39.709-8.462-49.939,53.775-82.446,49.148c-58.14-22.417-103.44-39.783-138.898-53.29
		l11.765-11.835l26.857,9.104c0,0,9.717-10.413,3.782-12.549c-7.509-2.715-86.895-44.387-125.12-57.811
		c-38.222-13.418-42.318,14.896-42.318,14.896l27.911,9.46l-3.163,10.968c-22.013-8.125-27.967-10.098-31.697-11.516
		c-25.982-9.854-34.631-8.1-45.683,34.326l-26.675-5.68l-52.51-11.192l14.068-66.017c0.399-1.9-1.355-3.901-3.911-4.441
		c-2.563-0.548-4.969,0.553-5.379,2.458l-14.068,66.042l-13.028-2.78c-6.727-1.43-13.702,4.522-15.556,13.275
		c-1.882,8.771,2.062,17.028,8.797,18.455l13.033,2.776l-14.669,68.854c-0.418,1.899,1.338,3.888,3.901,4.44
		c2.551,0.548,4.961-0.558,5.379-2.46l14.558-68.326c1.317,20.952,10.083,46.995,41.511,62.8
		c12.095,6.073,27.465,10.67,47.154,12.845c6.005,0.661,12.048,1.297,18.124,1.92l2.294,24.942
		c-9.764,2.461-17.784,10.219-20.028,20.724c-3.139,14.716,6.257,29.189,20.962,32.329c14.729,3.142,29.203-6.238,32.337-20.966
		c1.864-8.733-0.705-17.35-6.158-23.598l27.878-28.05c0.942,0.083,1.887,0.157,2.829,0.247l1.194,12.977
		c-7.925,2.004-14.464,8.248-16.285,16.781c-2.546,11.955,5.091,23.719,17.047,26.265c11.969,2.549,23.716-5.074,26.271-17.037
		c1.504-7.089-0.619-14.062-5.05-19.136l16.43-16.533c49.626,4.062,97.604,7.825,138.681,12.584l1.027,11.169
		c-6.436,1.631-11.747,6.697-13.224,13.619c-2.062,9.717,4.134,19.267,13.84,21.329c9.718,2.071,19.258-4.115,21.329-13.831
		c1.228-5.758-0.502-11.419-4.092-15.538l12.588-12.667c11.656,1.696,22.51,3.53,32.352,5.547c1.169,0.241,2.281,0.444,3.409,0.659
		c71.149,13.937,87.886-3.01,91.688-41.608C743.114,397.3,750.668,381.9,719.927,375.356z M408.756,324.947l93.091,31.558
		l-10.006,12.146c-41.097-15.645-68.205-25.812-86.371-32.547L408.756,324.947z"/>
	<path fill="#060907" d="M658.513,233.608c0,36.185-29.334,65.512-65.511,65.512l0,0c-36.18,0-65.506-29.327-65.506-65.512l0,0
		c0-36.179,29.326-65.504,65.506-65.504l0,0C629.179,168.105,658.513,197.431,658.513,233.608L658.513,233.608z"/>
</g>
<path fill="#FFFFFF" d="M323.516,224.637c0,11.843-9.61,21.449-21.455,21.449H196.058c-8.316,0-15.059-6.754-15.059-15.077
	c0-7.832,5.985-14.2,13.627-14.901c-0.037-0.593-0.083-1.146-0.083-1.75c0-17.524,14.198-31.703,31.732-31.703
	c1.588,0,3.159,0.158,4.692,0.396c7.161-9.312,18.388-15.304,31.013-15.304c10.205,0,19.461,3.893,26.419,10.287
	c6.99,6.373,11.612,15.24,12.565,25.198C312.801,203.231,323.516,212.781,323.516,224.637z"/>
<path fill="#FFFFFF" d="M342.062,587.298c0,14.562,11.812,26.383,26.402,26.383h130.389c10.224,0,18.523-8.315,18.523-18.552
	c0-9.629-7.367-17.465-16.764-18.319c0.045-0.733,0.105-1.422,0.105-2.164c0-21.554-17.48-38.998-39.043-38.998
	c-1.959,0-3.88,0.203-5.77,0.497c-8.808-11.463-22.621-18.831-38.163-18.831c-12.551,0-23.935,4.795-32.495,12.656
	c-8.592,7.842-14.288,18.747-15.444,31.007C355.234,560.971,342.062,572.713,342.062,587.298z"/>
<path fill="#F9BA22" d="M417.535,327.483L389.3,355.896l-4.208-4.111l25.436-30.884L417.535,327.483z"/>
<path fill="#F9BA22" d="M300.193,297.39l7.558,1.611l-0.409,1.402l-5.05,17.19l-7.468-1.593L300.193,297.39z"/>
<path fill="#FFFFFF" d="M117.455,311.946l19.657,4.195l0.088,33.188l-26.503-5.655c-6.734-1.425-10.674-9.688-8.797-18.453
	C103.754,316.466,110.729,310.517,117.455,311.946z"/>
<path fill="#F9BA22" d="M304.159,424.673l-52.793,53.125l-7.106-1.503l-5.23-56.836L304.159,424.673z"/>
<path fill="#FFFFFF" d="M275.845,477.879c0,15.045-12.197,27.247-27.246,27.247l0,0c-15.05,0-27.252-12.197-27.252-27.247l0,0
	c0-15.05,12.202-27.251,27.252-27.251l0,0C263.647,450.628,275.845,462.829,275.845,477.879L275.845,477.879z"/>
<path fill="#144051" d="M260.071,477.879c0,6.337-5.137,11.474-11.478,11.474c-6.34,0-11.479-5.137-11.479-11.474
	c0-6.342,5.139-11.479,11.479-11.479S260.071,471.537,260.071,477.879z"/>
<path fill="#F9BA22" d="M351.51,423.298l-42.892,43.159l-5.777-1.218l-4.246-46.18L351.51,423.298z"/>
<path fill="#FFFFFF" d="M328.508,466.526c0,12.229-9.912,22.146-22.147,22.146l0,0c-12.229,0-22.142-9.918-22.142-22.146l0,0
	c0-12.229,9.913-22.143,22.142-22.143l0,0C318.596,444.385,328.508,454.297,328.508,466.526L328.508,466.526z"/>
<path fill="#144051" d="M315.684,466.526c0,5.152-4.175,9.327-9.327,9.327s-9.327-4.175-9.327-9.327
	c0-5.149,4.174-9.327,9.327-9.327C311.509,457.199,315.684,461.377,315.684,466.526z"/>
<path fill="#F9BA22" d="M520.135,441.496l-34.827,35.052l-4.689-0.985l-3.447-37.504L520.135,441.496z"/>
<path fill="#FFFFFF" d="M465.888,472.849c-2.062,9.718,4.136,19.266,13.842,21.329c9.718,2.07,19.258-4.114,21.33-13.832
	c2.071-9.707-4.125-19.257-13.842-21.329C477.523,456.943,467.964,463.15,465.888,472.849z"/>
<path fill="#144051" d="M491.05,476.603c0,4.18-3.387,7.569-7.571,7.569l0,0c-4.181,0-7.57-3.391-7.57-7.569l0,0
	c0-4.182,3.391-7.573,7.57-7.573l0,0C487.663,469.028,491.05,472.421,491.05,476.603L491.05,476.603z"/>
<linearGradient id="SVGID_1_" gradientUnits="userSpaceOnUse" x1="1445.2305" y1="1366.5703" x2="1445.2305" y2="1345.5469" gradientTransform="matrix(-0.978 -0.2084 -0.2084 0.978 2268.3594 -596.7168)">
	<stop  offset="0" style="stop-color:#A51E22"/>
	<stop  offset="0.2893" style="stop-color:#B31F24"/>
	<stop  offset="0.8337" style="stop-color:#D71F26"/>
	<stop  offset="1" style="stop-color:#E31E26"/>
</linearGradient>
<path fill="url(#SVGID_1_)" d="M628.973,429.65l-108.926-23.215c0,0,3.354,22.212,58.247,33.907
	C613.646,447.888,628.973,429.65,628.973,429.65z"/>
<path fill="#F08649" d="M435.245,345.783L271.59,290.319c0,0,4.097-28.314,42.323-14.896
	c38.225,13.424,117.608,55.099,125.115,57.811C444.963,335.371,435.245,345.783,435.245,345.783z"/>
<path fill="#F08649" d="M192.284,327.879l-17.882,83.881c-59.153-29.737-38.023-95.792-38.023-95.792L192.284,327.879z"/>
<path fill="#F9BA22" d="M109.058,415.308c-0.418,1.899,1.338,3.888,3.902,4.44l0,0c2.55,0.549,4.96-0.558,5.378-2.463
	l35.505-166.618c0.399-1.906-1.356-3.904-3.911-4.441l0,0c-2.564-0.548-4.97,0.553-5.379,2.458L109.058,415.308z"/>
<g transform="matrix(1, 0, 0, 1, -83.34607633289082, 0.4931720493070415)">
	<path fill="#FFFFFF" d="M258.175,411.54c-0.131-0.098-0.284-0.203-0.428-0.278l-0.01,0.048
		C257.886,411.382,258.026,411.47,258.175,411.54z"/>
	<path fill="#FFFFFF" d="M701.321,352.169c-39.707-8.462-49.941,53.773-82.445,49.146
		c-239.312-92.288-261.756-99.102-270.888-102.574c-25.983-9.856-34.631-8.102-45.684,34.323l-26.675-5.68l-5.203,24.394
		l-12.68,59.487c12.094,6.075,27.464,10.674,47.149,12.847c116.038,12.789,246.296,17.92,320.358,33.082
		c1.171,0.24,2.275,0.446,3.409,0.66c71.15,13.934,87.886-3.012,91.69-41.61C724.508,374.111,732.06,358.719,701.321,352.169z"/>
</g>
<path fill="#144051" d="M350.822,360.586l-57.458-10.604l5.653-26.567c8.518,3.292,48.12,18.84,57.252,22.369L350.822,360.586z"/>
<path fill="#144051" d="M273.657,345.783l-41.186-8.773c6.725-31.612,11.597-34.98,28.068-28.903
	c0.521,0.199,8.51,3.392,19.484,7.784L273.657,345.783z"/>
<path fill="#F9BA22" d="M556.56,210.917c0,36.182-29.328,65.509-65.51,65.509l0,0c-36.18,0-65.508-29.328-65.508-65.509l0,0
	c0-36.179,29.328-65.506,65.508-65.506l0,0C527.231,145.411,556.56,174.738,556.56,210.917L556.56,210.917z"/>
</svg>
